<svg
   xmlns:dc="http://purl.org/dc/elements/1.1/"
   xmlns:cc="http://creativecommons.org/ns#"
   xmlns:rdf="http://www.w3.org/1999/02/22-rdf-syntax-ns#"
   xmlns:svg="http://www.w3.org/2000/svg"
   xmlns="http://www.w3.org/2000/svg"
   width="24"
   height="24"
   viewBox="0 0 22.5 22.5"
   version="1.1"
   id="svg957">
  <metadata
     id="metadata963">
    <rdf:RDF>
      <cc:Work
         rdf:about="">
        <dc:format>image/svg+xml</dc:format>
        <dc:type
           rdf:resource="http://purl.org/dc/dcmitype/StillImage" />
        <dc:title></dc:title>
      </cc:Work>
    </rdf:RDF>
  </metadata>
  <defs
     id="defs961" />
  <path
     id="path953"
     style="stroke-width:0.0969788"
     fill="#ffffff"
     d="M 11.216846,0 C 8.34034,0.02351731 5.5733657,0.3350075 3.9608543,1.0755602 c 0,0 -3.19809153,1.4305483 -3.19809153,6.3114806 0,1.1176782 -0.0217241,2.4540501 0.0136731,3.8712712 0.11613186,4.773286 0.87505131,9.477577 5.28830441,10.645685 2.0348532,0.538595 3.782003,0.651434 5.1890417,0.574094 2.551627,-0.141468 3.984029,-0.910595 3.984029,-0.910595 l -0.08416,-1.851378 c 0,0 -1.823447,0.574907 -3.871271,0.504841 -2.028913,-0.06959 -4.1708405,-0.218749 -4.4989917,-2.709766 -0.030306,-0.218808 -0.045458,-0.452853 -0.045458,-0.698572 0,0 1.9917512,0.486859 4.5158607,0.602506 1.543414,0.07079 2.99074,-0.09041 4.460813,-0.265827 2.819168,-0.336638 5.273853,-2.073671 5.582366,-3.660847 0.486105,-2.50023 0.446063,-6.1014122 0.446063,-6.1014122 0,-4.8809323 -3.197913,-6.3114806 -3.197913,-6.3114806 C 16.93272,0.3350075 14.164027,0.02351731 11.28752,0 Z M 7.9613985,3.8137375 c 1.1981706,0 2.1053925,0.4605208 2.7053265,1.3816961 l 0.583327,0.9777176 0.583328,-0.9777176 c 0.599812,-0.9211753 1.507035,-1.3816961 2.705326,-1.3816961 1.035489,0 1.869828,0.3640138 2.506977,1.0741396 0.617633,0.7101256 0.925156,1.6700588 0.925156,2.8779272 V 13.675792 H 15.62936 V 7.9394708 c 0,-1.2092019 -0.50875,-1.8229654 -1.526419,-1.8229654 -1.125194,0 -1.689074,0.7279876 -1.689074,2.1676348 V 11.423988 H 10.086238 V 8.2841402 c 0,-1.4396472 -0.5640585,-2.1676348 -1.6892526,-2.1676348 -1.0176691,0 -1.5264184,0.6137635 -1.5264184,1.8229654 V 13.675792 H 4.5290882 V 7.7658043 c 0,-1.2078684 0.3075798,-2.1678016 0.9253333,-2.8779272 0.6370282,-0.7101258 1.4713669,-1.0741396 2.506977,-1.0741396 z" />
</svg>
